<?xml version="1.0" encoding="UTF-8"?>
<svg viewBox="0 0 48 48" version="1.1" xmlns="http://www.w3.org/2000/svg" xmlns:xlink="http://www.w3.org/1999/xlink">
    <!-- Generator: Sketch 54.1 (76490) - https://sketchapp.com -->
    <title>Icon/Order/Black</title>
    <desc>Created with Sketch.</desc>
    <g id="Icon/Order/Black" stroke="none" stroke-width="1" fill="none" fill-rule="evenodd" stroke-linecap="round">
        <polyline id="BG" stroke="#011627" stroke-linejoin="round" transform="translate(24.000000, 24.000000) rotate(180.000000) translate(-24.000000, -24.000000) " points="12 32 12 8 36 8 36 40 20 40"></polyline>
        <g id="Star" transform="translate(28.000000, 8.000000)" stroke="#011627">
            <path d="M4,-1.58095759e-13 C4,-1.58095759e-13 4,2.66666667 4,8" id="Star---Vertical"></path>
            <path d="M-8.8817842e-16,4 L8,4" id="Star---Horizontal"></path>
            <path d="M2,6 L6,2" id="Star---Diagonal"></path>
            <path d="M2,2 L6,6" id="Star---Diagonal"></path>
        </g>
        <g id="Lines" transform="translate(16.000000, 11.500000)" stroke="#011627">
            <path d="M0,0.5 L8,0.5" id="Line"></path>
            <path d="M0,4.5 L12,4.5" id="Line"></path>
            <path d="M0,8.5 L16,8.5" id="Line"></path>
            <path d="M0,12.5 L16,12.5" id="Line"></path>
            <path d="M0,16.5 L16,16.5" id="Line"></path>
            <path d="M0,20.5 L16,20.5" id="Line"></path>
            <path d="M0,24.5 L16,24.5" id="Line"></path>
        </g>
    </g>
</svg>